<svg xmlns="http://www.w3.org/2000/svg" xmlns:xlink="http://www.w3.org/1999/xlink" width="677" zoomAndPan="magnify" viewBox="0 0 507.75 442.499987" height="590" preserveAspectRatio="xMidYMid meet" version="1.0"><defs><clipPath id="a79e058a79"><path d="M 177 302 L 252 302 L 252 376 L 177 376 Z M 177 302 " clip-rule="nonzero"/></clipPath><clipPath id="e225f4a363"><path d="M 102.339844 0 L 506.804688 134.582031 L 404.628906 441.664062 L 0.160156 307.082031 Z M 102.339844 0 " clip-rule="nonzero"/></clipPath><clipPath id="9e9513117f"><path d="M 102.339844 0 L 506.804688 134.582031 L 404.628906 441.664062 L 0.160156 307.082031 Z M 102.339844 0 " clip-rule="nonzero"/></clipPath><clipPath id="ca4024c363"><path d="M 143 215 L 330 215 L 330 321 L 143 321 Z M 143 215 " clip-rule="nonzero"/></clipPath><clipPath id="16ca3fa346"><path d="M 102.339844 0 L 506.804688 134.582031 L 404.628906 441.664062 L 0.160156 307.082031 Z M 102.339844 0 " clip-rule="nonzero"/></clipPath><clipPath id="280c4942bb"><path d="M 102.339844 0 L 506.804688 134.582031 L 404.628906 441.664062 L 0.160156 307.082031 Z M 102.339844 0 " clip-rule="nonzero"/></clipPath><clipPath id="4c12f09667"><path d="M 70 53 L 474 53 L 474 249 L 70 249 Z M 70 53 " clip-rule="nonzero"/></clipPath><clipPath id="549589f7f0"><path d="M 102.339844 0 L 506.804688 134.582031 L 404.628906 441.664062 L 0.160156 307.082031 Z M 102.339844 0 " clip-rule="nonzero"/></clipPath><clipPath id="39e303ec52"><path d="M 102.339844 0 L 506.804688 134.582031 L 404.628906 441.664062 L 0.160156 307.082031 Z M 102.339844 0 " clip-rule="nonzero"/></clipPath><clipPath id="5c186bc092"><path d="M 108 136 L 400 136 L 400 286 L 108 286 Z M 108 136 " clip-rule="nonzero"/></clipPath><clipPath id="4e4bec6350"><path d="M 102.339844 0 L 506.804688 134.582031 L 404.628906 441.664062 L 0.160156 307.082031 Z M 102.339844 0 " clip-rule="nonzero"/></clipPath><clipPath id="ee4723d4e5"><path d="M 102.339844 0 L 506.804688 134.582031 L 404.628906 441.664062 L 0.160156 307.082031 Z M 102.339844 0 " clip-rule="nonzero"/></clipPath><clipPath id="8b510c60a0"><path d="M 333.046875 25.359375 L 464.347656 25.359375 L 464.347656 190 L 333.046875 190 Z M 333.046875 25.359375 " clip-rule="nonzero"/></clipPath><clipPath id="e57647e4b0"><path d="M 192 9.398438 L 301 9.398438 L 301 134 L 192 134 Z M 192 9.398438 " clip-rule="nonzero"/></clipPath><clipPath id="693c8cbb65"><path d="M 154 289 L 197.441406 289 L 197.441406 333.03125 L 154 333.03125 Z M 154 289 " clip-rule="nonzero"/></clipPath></defs><g clip-path="url(#a79e058a79)"><g clip-path="url(#e225f4a363)"><g clip-path="url(#9e9513117f)"><path fill="#168cf6" d="M 225.976562 303.910156 C 206.898438 297.5625 186.054688 307.996094 179.707031 327.074219 C 173.359375 346.152344 183.792969 366.996094 202.871094 373.34375 C 221.949219 379.691406 242.792969 369.257812 249.140625 350.179688 C 255.59375 330.789062 245.054688 310.257812 225.976562 303.910156 Z M 225.976562 303.910156 " fill-opacity="1" fill-rule="nonzero"/></g></g></g><g clip-path="url(#ca4024c363)"><g clip-path="url(#16ca3fa346)"><g clip-path="url(#280c4942bb)"><path fill="#168cf6" d="M 253.34375 221.65625 C 221.445312 211.039062 187.257812 213.558594 157.347656 228.273438 C 145.261719 234.324219 140.371094 249.023438 146.421875 261.113281 C 149.34375 266.949219 154.453125 271.429688 160.707031 273.507812 C 166.964844 275.589844 173.738281 275.066406 179.574219 272.144531 C 197.914062 262.960938 218.550781 261.492188 237.941406 267.945312 C 257.335938 274.394531 273.289062 288.042969 282.472656 306.382812 C 285.394531 312.21875 290.503906 316.699219 296.757812 318.777344 C 303.015625 320.859375 309.789062 320.335938 315.625 317.414062 C 327.710938 311.363281 332.601562 296.660156 326.550781 284.574219 C 311.109375 254.769531 285.246094 232.269531 253.34375 221.65625 Z M 253.34375 221.65625 " fill-opacity="1" fill-rule="nonzero"/></g></g></g><g clip-path="url(#4c12f09667)"><g clip-path="url(#549589f7f0)"><g clip-path="url(#39e303ec52)"><path fill="#168cf6" d="M 470.980469 212.78125 C 436.546875 144.007812 377.210938 92.652344 304.339844 68.402344 C 231.464844 44.15625 153.292969 49.410156 84.515625 83.84375 C 72.429688 89.894531 67.535156 104.59375 73.589844 116.683594 C 76.511719 122.519531 81.621094 127 87.875 129.078125 C 94.128906 131.160156 100.90625 130.636719 106.742188 127.714844 C 163.429688 99.332031 228.15625 94.816406 288.832031 115.003906 C 349.507812 135.195312 398.625 177.589844 427.214844 234.695312 C 430.136719 240.53125 435.246094 245.011719 441.5 247.09375 C 447.757812 249.171875 454.53125 248.648438 460.367188 245.726562 C 472.144531 239.570312 477.035156 224.871094 470.980469 212.78125 Z M 470.980469 212.78125 " fill-opacity="1" fill-rule="nonzero"/></g></g></g><g clip-path="url(#5c186bc092)"><g clip-path="url(#4e4bec6350)"><g clip-path="url(#ee4723d4e5)"><path fill="#168cf6" d="M 278.21875 146.90625 C 226.300781 129.632812 170.847656 133.414062 121.765625 157.726562 C 115.929688 160.648438 111.453125 165.757812 109.371094 172.011719 C 107.289062 178.269531 107.8125 185.042969 110.734375 190.878906 C 113.65625 196.714844 118.765625 201.191406 125.023438 203.273438 C 131.277344 205.355469 138.054688 204.832031 143.886719 201.910156 C 180.984375 183.335938 223.304688 180.394531 262.710938 193.507812 C 302.117188 206.621094 334.238281 234.328125 352.8125 271.425781 C 355.734375 277.261719 360.84375 281.742188 367.097656 283.824219 C 373.351562 285.902344 380.128906 285.378906 385.964844 282.457031 C 391.800781 279.535156 396.277344 274.425781 398.359375 268.171875 C 400.441406 261.914062 399.917969 255.140625 396.996094 249.304688 C 372.160156 200.746094 330.136719 164.179688 278.21875 146.90625 Z M 278.21875 146.90625 " fill-opacity="1" fill-rule="nonzero"/></g></g></g><path fill="#183ea2" d="M 340.023438 262.390625 C 357.6875 267.625 376.246094 257.554688 381.484375 239.894531 L 382.277344 237.214844 C 387.515625 219.554688 377.445312 200.992188 359.785156 195.753906 C 342.121094 190.519531 323.558594 200.589844 318.324219 218.25 L 317.53125 220.929688 C 312.292969 238.589844 322.363281 257.152344 340.023438 262.390625 " fill-opacity="1" fill-rule="nonzero"/><g clip-path="url(#8b510c60a0)"><path fill="#183ea2" d="M 410.382812 30.632812 C 379.683594 21.527344 358.84375 25.453125 344.472656 36.574219 C 326.570312 50.429688 332.035156 78.796875 353.738281 85.234375 L 355.347656 85.710938 C 366.828125 89.113281 378.894531 84.324219 385.636719 74.425781 C 387.722656 71.359375 390.035156 70.132812 392.953125 70.996094 C 397.972656 72.488281 399.089844 76.097656 396.308594 85.472656 C 392.933594 96.855469 388.171875 103.09375 376.1875 111.558594 C 354.257812 126.550781 342.050781 138.230469 335.300781 161 L 333.613281 166.691406 C 332.679688 169.835938 334.472656 173.140625 337.617188 174.070312 L 390.1875 189.660156 C 393.332031 190.59375 396.632812 188.800781 397.566406 185.65625 C 400.644531 175.277344 405.507812 168.703125 423.058594 154.96875 C 442.683594 140.386719 453.835938 133.492188 461.085938 109.050781 C 470.417969 77.574219 461.953125 45.921875 410.382812 30.632812 " fill-opacity="1" fill-rule="nonzero"/></g><path fill="#183ea2" d="M 242.691406 199.042969 C 257.101562 199.117188 268.84375 187.496094 268.917969 173.089844 L 268.929688 170.902344 C 269.007812 156.492188 257.386719 144.75 242.976562 144.675781 C 228.566406 144.597656 216.828125 156.21875 216.75 170.628906 L 216.738281 172.8125 C 216.660156 187.222656 228.28125 198.964844 242.691406 199.042969 " fill-opacity="1" fill-rule="nonzero"/><g clip-path="url(#e57647e4b0)"><path fill="#183ea2" d="M 244.914062 9.589844 C 219.863281 9.460938 205.066406 16.960938 196.703125 28.453125 C 186.285156 42.773438 196.585938 62.886719 214.292969 62.980469 L 215.605469 62.984375 C 224.972656 63.035156 232.988281 56.800781 235.890625 47.894531 C 236.789062 45.132812 238.257812 43.707031 240.636719 43.71875 C 244.734375 43.742188 246.363281 46.207031 246.320312 53.855469 C 246.273438 63.144531 244.058594 68.871094 236.90625 77.851562 C 223.707031 93.898438 217.089844 105.339844 216.996094 123.917969 L 216.96875 128.5625 C 216.957031 131.125 219.023438 133.214844 221.589844 133.230469 L 264.480469 133.453125 C 267.046875 133.46875 269.136719 131.402344 269.148438 128.835938 C 269.195312 120.367188 271.414062 114.367188 281.597656 100.214844 C 293.148438 84.976562 300.019531 77.359375 300.125 57.417969 C 300.257812 31.738281 286.984375 9.8125 244.914062 9.589844 " fill-opacity="1" fill-rule="nonzero"/></g><g clip-path="url(#693c8cbb65)"><path fill="#183ea2" d="M 182.210938 332.066406 C 193.351562 328.585938 199.5625 316.730469 196.078125 305.589844 L 195.550781 303.902344 C 192.070312 292.761719 180.21875 286.550781 169.074219 290.03125 C 157.933594 293.511719 151.722656 305.367188 155.207031 316.507812 L 155.730469 318.195312 C 159.214844 329.339844 171.066406 335.546875 182.210938 332.066406 " fill-opacity="1" fill-rule="nonzero"/></g><path fill="#183ea2" d="M 137.390625 185.277344 C 118.019531 191.332031 108.441406 200.753906 104.804688 211.683594 C 100.28125 225.292969 113.175781 238.289062 126.863281 234.011719 L 127.878906 233.695312 C 135.125 231.433594 139.78125 224.652344 139.832031 217.0625 C 139.847656 214.710938 140.628906 213.25 142.46875 212.675781 C 145.636719 211.683594 147.5 213.1875 149.351562 219.101562 C 151.59375 226.285156 151.289062 231.25 147.976562 239.9375 C 141.730469 255.566406 139.433594 266.023438 143.917969 280.386719 L 145.039062 283.980469 C 145.660156 285.960938 147.773438 287.070312 149.753906 286.449219 L 182.917969 276.085938 C 184.902344 275.46875 186.007812 273.355469 185.390625 271.375 C 183.34375 264.824219 183.578125 259.648438 187.964844 246.222656 C 193.140625 231.621094 196.574219 224.058594 191.753906 208.636719 C 185.554688 188.777344 169.921875 175.113281 137.390625 185.277344 " fill-opacity="1" fill-rule="nonzero"/></svg>