<svg xmlns="http://www.w3.org/2000/svg" xmlns:xlink="http://www.w3.org/1999/xlink" width="720" zoomAndPan="magnify" viewBox="0 0 540 315.749992" height="421" preserveAspectRatio="xMidYMid meet" version="1.0"><defs><clipPath id="a8335a3dc6"><path d="M 0.214844 0 L 539.785156 0 L 539.785156 315.5 L 0.214844 315.5 Z M 0.214844 0 " clip-rule="nonzero"/></clipPath><clipPath id="a848f29d32"><path d="M 203.03125 25.210938 L 423 25.210938 L 423 246 L 203.03125 246 Z M 203.03125 25.210938 " clip-rule="nonzero"/></clipPath><clipPath id="4459b75837"><path d="M 116.117188 70 L 309.464844 70 L 309.464844 290 L 116.117188 290 Z M 116.117188 70 " clip-rule="nonzero"/></clipPath></defs><g clip-path="url(#a8335a3dc6)"><path fill="#ffffff" d="M 0.214844 0 L 539.785156 0 L 539.785156 315.5 L 0.214844 315.5 Z M 0.214844 0 " fill-opacity="1" fill-rule="nonzero"/><path fill="#ebebeb" d="M 0.214844 0 L 539.785156 0 L 539.785156 315.5 L 0.214844 315.5 Z M 0.214844 0 " fill-opacity="1" fill-rule="nonzero"/></g><g clip-path="url(#a848f29d32)"><path fill="#3747d6" d="M 213.023438 25.710938 C 210.15625 25.710938 207.429688 26.941406 205.53125 29.089844 C 203.636719 31.238281 202.753906 34.097656 203.109375 36.945312 L 223.09375 196.828125 C 223.507812 200.144531 225.550781 203.03125 228.539062 204.527344 L 308.484375 244.496094 C 311.296875 245.90625 314.609375 245.90625 317.421875 244.496094 L 397.363281 204.527344 C 400.351562 203.03125 402.394531 200.144531 402.808594 196.828125 L 422.796875 36.945312 C 423.152344 34.097656 422.269531 31.238281 420.371094 29.089844 C 418.476562 26.941406 415.746094 25.710938 412.878906 25.710938 Z M 213.023438 25.710938 " fill-opacity="1" fill-rule="nonzero"/></g><path fill="#ffffff" d="M 252.996094 55.691406 L 382.902344 55.691406 C 387.535156 55.691406 391.5625 58.875 392.628906 63.386719 C 393.691406 67.898438 391.515625 72.546875 387.371094 74.621094 L 315.3125 110.648438 L 372.910156 110.648438 C 375.871094 110.648438 378.683594 111.964844 380.582031 114.238281 C 382.480469 116.515625 383.269531 119.515625 382.742188 122.429688 L 372.746094 177.390625 C 372.234375 180.222656 370.523438 182.691406 368.058594 184.171875 L 318.09375 214.152344 C 314.929688 216.050781 310.976562 216.050781 307.8125 214.152344 L 257.847656 184.171875 C 255.335938 182.664062 253.613281 180.132812 253.132812 177.246094 L 248.136719 147.269531 L 267.847656 143.980469 L 272.085938 169.410156 L 312.953125 193.929688 L 353.894531 169.363281 L 360.9375 130.636719 L 272.980469 130.636719 C 268.347656 130.636719 264.320312 127.449219 263.257812 122.9375 C 262.191406 118.429688 264.367188 113.777344 268.511719 111.707031 L 340.570312 75.675781 L 252.996094 75.675781 Z M 252.996094 55.691406 " fill-opacity="1" fill-rule="evenodd"/><g clip-path="url(#4459b75837)"><path fill="#e44d26" d="M 133.671875 267.929688 L 116.0625 70.058594 L 309.519531 70.058594 L 291.898438 267.902344 L 212.667969 289.898438 Z M 133.671875 267.929688 " fill-opacity="1" fill-rule="nonzero"/></g><path fill="#f16529" d="M 276.808594 255.300781 L 291.871094 86.238281 L 212.792969 86.238281 L 212.792969 273.085938 Z M 276.808594 255.300781 " fill-opacity="1" fill-rule="nonzero"/><path fill="#ebebeb" d="M 212.710938 110.503906 L 152.058594 110.503906 L 158.59375 183.890625 L 212.792969 183.890625 L 212.792969 159.625 L 180.746094 159.625 L 178.53125 134.777344 L 212.792969 134.777344 L 212.792969 110.503906 Z M 212.792969 222.570312 L 212.6875 222.597656 L 185.714844 215.300781 L 184.003906 195.949219 L 159.675781 195.949219 L 163.070312 234.050781 L 212.683594 247.792969 L 212.792969 247.757812 Z M 212.792969 222.570312 " fill-opacity="1" fill-rule="nonzero"/><path fill="#ffffff" d="M 212.710938 183.890625 L 242.535156 183.890625 L 239.792969 215.355469 L 212.777344 222.660156 L 212.777344 247.910156 L 262.429688 234.121094 L 269.082031 159.613281 L 212.792969 159.613281 Z M 272.796875 117.015625 L 273.375 110.503906 L 212.695312 110.503906 L 212.695312 134.769531 L 271.195312 134.769531 L 271.671875 129.316406 Z M 272.796875 117.015625 " fill-opacity="1" fill-rule="nonzero"/></svg>